<svg viewBox="0 0 190 34.52" xmlns="http://www.w3.org/2000/svg"><path d="m26.21 34.38-20.56-4.11a7 7 0 0 1 -5.38-8.82l4.5-15.88a7.65 7.65 0 0 1 11-4.64l14.15 7.66a8.24 8.24 0 0 1 4.31 6.88l.51 11.6a7.14 7.14 0 0 1 -8.53 7.31z" fill="#fff"/><path d="m10.42 27.91a.7.7 0 0 0 -.85-.91l-.58.1a2.06 2.06 0 0 1 -2.53-2.79l2.12-7.91a5.94 5.94 0 0 1 4.37-4l.57-.1a2 2 0 0 0 1.48-1.3 6 6 0 0 1 4.36-4l2.64-.38c-3.23-1.77-6.43-3.5-7.31-3.95a5.2 5.2 0 0 0 -7.32 1.59 6.45 6.45 0 0 0 -1 2c-.72 2.45-3.29 11.02-4.37 15.74-1.27 5.6 4.71 6.56 4.71 6.56l3.67.77a2.67 2.67 0 0 1 0-1.45" fill="#ef7f13" fill-rule="evenodd"/><path d="m32.38 15.62a6.7 6.7 0 0 0 -2.44-4.75l-.51-.28a5.37 5.37 0 0 1 -2.38 1.12l-9.49 1.6a2.48 2.48 0 0 0 -1.82 1.69l-2.28 8.4a.86.86 0 0 0 1.06 1.16l9.48-1.56a2.08 2.08 0 0 1 2.54 2.8l-.76 2.81-10.54 1.74 10.09 2.09c3.85.77 5.85-.92 6.81-2.29a4.17 4.17 0 0 0 .73-2.59c-.14-2.87-.49-10.69-.49-11.94" fill="#ef7f13" fill-rule="evenodd"/><g fill="#fff"><path d="m55.61 17.85c0-2.35-.84-4.54-3.56-4.54-3.49 0-3.83 4.57-3.83 7.14 0 2.9.34 6.64 4.08 6.64 2.32 0 3.4-1.95 3.68-4l4.82.31c-.53 4.85-3.87 7.73-8.75 7.73-6.3 0-9.36-5.13-9.36-10.91s3.15-10.9 9.52-10.9c5.31 0 8 3.09 8.59 8.19z"/><path d="m67.2 13.74v4.26h8v4h-8v4.7h10.19v4.11h-15.14v-21.18h15.14v4.11z"/><path d="m94.3 13.83h-5.3v17h-5v-17h-5.34v-4.2h15.64z"/><path d="m100.51 30.83h-4.94v-21.2h8.93c1.88 0 3.8 0 5.43 1.08a6.36 6.36 0 0 1 2.69 5.29 5.74 5.74 0 0 1 -3.62 5.47l3.92 9.36h-5.5l-3.25-8.38h-3.61zm0-12h2.72a6 6 0 0 0 3-.43 2.87 2.87 0 0 0 1.26-2.4 2.65 2.65 0 0 0 -1.2-2.17 6.61 6.61 0 0 0 -3.18-.4h-2.6z"/><path d="m116.3 27.8a13.21 13.21 0 0 1 -2.23-7.6c0-5.63 2.82-10.88 9.09-10.88a7.74 7.74 0 0 1 6.74 3.25 13.59 13.59 0 0 1 2.28 7.63 13.92 13.92 0 0 1 -2 7.35 8.14 8.14 0 0 1 -7 3.59 7.85 7.85 0 0 1 -6.88-3.34zm3.65-12a13.34 13.34 0 0 0 -.68 4.42c0 2.66.4 6.89 3.89 6.89a3.08 3.08 0 0 0 3.18-2.41 13.37 13.37 0 0 0 .65-4.45 12.52 12.52 0 0 0 -.77-4.79 3 3 0 0 0 -3.06-2.07 3.17 3.17 0 0 0 -3.16 2.39z"/><path d="m142.26 23.44v-4h8.74v11.39h-2.25l-.75-2.44a6.85 6.85 0 0 1 -5.77 2.75c-6.22 0-8.78-5.16-8.78-10.72 0-5.75 2.81-11.1 9.21-11.1 4.57 0 7.66 2.78 8.31 7.26l-4.7.65c-.21-2.13-1.36-3.92-3.73-3.92-3.5 0-4 4.54-4 7.17s.77 6.64 4.23 6.64a3.33 3.33 0 0 0 3.52-3.68z"/><path d="m171.43 30.83h-5.35l-1.3-4.36h-6.86l-1.32 4.36h-4.36l6.76-21.2h5.74zm-7.79-8.25-2.25-7.45-2.26 7.45z"/><path d="m177.64 30.83h-4.94v-21.2h8.93c1.88 0 3.8 0 5.43 1.08a6.36 6.36 0 0 1 2.69 5.29 5.74 5.74 0 0 1 -3.67 5.47l3.92 9.36h-5.5l-3.25-8.38h-3.61zm0-12h2.72a6 6 0 0 0 3-.43 2.87 2.87 0 0 0 1.26-2.4 2.65 2.65 0 0 0 -1.2-2.17 6.61 6.61 0 0 0 -3.18-.4h-2.6z"/></g></svg>