<?xml version="1.0" encoding="utf-8"?>
<!-- Generator: Adobe Illustrator 26.0.3, SVG Export Plug-In . SVG Version: 6.00 Build 0)  -->
<svg version="1.1" id="Capa_1" xmlns="http://www.w3.org/2000/svg" xmlns:xlink="http://www.w3.org/1999/xlink" x="0px" y="0px"
	 viewBox="0 0 136 26" style="enable-background:new 0 0 136 26;" xml:space="preserve">
<style type="text/css">
	.st0{fill:#FF3C00;}
	.st1{fill:#FFDE14;}
</style>
<g>
	<g>
		<g>
			<g>
				<path class="st0" d="M69.65,5.38c-5.6,0-10.15,4.54-10.15,10.15s4.54,10.15,10.15,10.15c5.6,0,10.15-4.54,10.15-10.15
					C79.8,9.93,75.26,5.38,69.65,5.38z M69.65,21.52c-3.31,0-5.99-2.68-5.99-5.99s2.68-5.99,5.99-5.99s5.99,2.68,5.99,5.99
					C75.64,18.84,72.96,21.52,69.65,21.52z"/>
				<path class="st0" d="M136,18.33c0-4.05-3.3-7.35-7.35-7.35c-4.05,0-7.35,3.3-7.35,7.35s3.3,7.35,7.35,7.35
					c2.99,0,5.7-1.84,6.82-4.59h-3.69c-0.77,0.82-1.92,1.32-3.09,1.32c-1.95,0-3.65-1.37-4.04-3.27l-0.03-0.18h11.36
					C135.99,18.76,136,18.54,136,18.33z M124.9,16.6l0.1-0.19c0.71-1.41,2.12-2.28,3.69-2.28c1.57,0,2.99,0.87,3.69,2.28l0.1,0.19
					H124.9z"/>
				<path class="st0" d="M113.58,14.23c1.15,0,2.14,0.82,2.35,1.94c0.02,0.12,0.04,0.26,0.04,0.43l0.07,8.52h3.89v-9.78
					c0-2.66-2.08-4.59-4.95-4.59c-2.23,0-3.34,0.79-3.8,1.26l-0.23,0.23v-1.51h-3.67c0,5.19,0.04,13.26,0.05,14.38h3.85l0.01-8.49
					C111.18,15.3,112.26,14.23,113.58,14.23z"/>
				<rect x="101.59" y="10.74" class="st0" width="3.88" height="14.38"/>
				<rect x="95.88" y="6.1" class="st0" width="3.88" height="19.02"/>
				<path class="st0" d="M103.53,5.95c-1.01,0-1.83,0.82-1.83,1.83s0.82,1.83,1.83,1.83s1.83-0.82,1.83-1.83
					C105.36,6.77,104.54,5.95,103.53,5.95z"/>
			</g>
			<g>
				<path d="M50.88,25.74c1.86,0,3.46-0.53,4.61-1.53c1.11-0.97,1.73-2.35,1.73-3.89c0-1.28-0.38-2.23-1.21-2.98
					c-0.76-0.7-1.92-1.24-3.65-1.7c-1.65-0.45-2.74-0.82-2.74-1.93c0-0.76,0.61-1.23,1.59-1.23c0.89,0,1.45,0.51,1.63,1.47h3.86
					c-0.11-1.58-0.64-2.79-1.57-3.59c-0.91-0.78-2.21-1.18-3.86-1.18c-1.83,0-3.36,0.51-4.43,1.46c-1.05,0.93-1.6,2.23-1.6,3.75
					c0,2.32,1.29,3.8,4.06,4.66c0.47,0.15,0.91,0.25,1.29,0.35c1.26,0.31,2.1,0.52,2.1,1.54c0,0.88-0.67,1.42-1.74,1.42
					c-1.06,0-1.86-0.66-1.86-1.54v-0.11h-4.04C45.39,23.95,47.46,25.74,50.88,25.74z"/>
				<path d="M25.26,25.2V1.08h-7.78l-4.77,15.68c-0.01,0.02-0.02,0.03-0.04,0.03c-0.02,0-0.03-0.01-0.04-0.03L7.87,1.08H0V25.2h5.1
					V8.98c0-0.02,0.01-0.04,0.03-0.04c0.02,0,0.04,0.01,0.04,0.03l4.94,16.23h5.01l4.97-16.34c0.01-0.02,0.02-0.03,0.04-0.03
					c0.02,0,0.03,0.02,0.03,0.04V25.2L25.26,25.2L25.26,25.2z"/>
				<path d="M35.13,25.27c1.48,0,2.93-0.42,4.18-1.2c0.01-0.01,0.03-0.01,0.04,0c0.01,0.01,0,0.03,0,0.03l0.01,1.02h4.1l0-15.45
					h-4.26v0.98c0.05,0.01,0.05,0.03,0.03,0.04c-0.01,0.01-0.03,0.01-0.04,0c-1.22-0.74-2.62-1.13-4.05-1.13
					c-4.33,0-7.85,3.52-7.85,7.85C27.28,21.74,30.8,25.27,35.13,25.27z M35.43,13.84c2.03,0,3.69,1.65,3.69,3.69
					s-1.65,3.69-3.69,3.69s-3.69-1.65-3.69-3.69C31.74,15.49,33.4,13.84,35.43,13.84z"/>
				<path class="st1" d="M31.01,8.25l-2.13-2.13l5.21-5.21c0.87-0.87,2.28-0.87,3.15,0l5.21,5.21l-2.13,2.13L35.66,3.6L31.01,8.25z"
					/>
			</g>
		</g>
		<path class="st0" d="M87.86,14.23c1.15,0,2.14,0.82,2.35,1.94c0.02,0.12,0.04,0.26,0.04,0.43l0.07,8.52h3.96v-9.78
			c0-2.66-2.08-4.59-4.95-4.59c-2.23,0-3.34,0.79-3.8,1.26l-0.23,0.23v-1.51h-3.75c0,5.19,0.04,13.26,0.05,14.38h3.85l0.01-8.49
			C85.46,15.3,86.54,14.23,87.86,14.23z"/>
	</g>
</g>
</svg>
